<mxfile host="app.diagrams.net" modified="2022-03-25T14:21:32.057Z" agent="5.0 (X11; CrOS x86_64 14469.58.0) AppleWebKit/537.36 (KHTML, like Gecko) Chrome/99.0.4844.86 Safari/537.36" etag="tNoTHU8vXHlUOY2xxwn4" version="16.6.5" type="github">
  <diagram id="f2ft8yqFwmNnthZ0CB6P" name="Page-1">
    <mxGraphModel dx="1863" dy="1183" grid="0" gridSize="10" guides="1" tooltips="1" connect="1" arrows="1" fold="1" page="1" pageScale="1" pageWidth="200" pageHeight="390" background="#ffffff" math="0" shadow="1">
      <root>
        <mxCell id="0" />
        <mxCell id="1" parent="0" />
        <mxCell id="B4CApN_U5xcei9GQMjOe-3" value="" style="edgeStyle=orthogonalEdgeStyle;rounded=1;orthogonalLoop=1;jettySize=auto;html=1;startArrow=classic;startFill=1;sketch=1;" parent="1" source="B4CApN_U5xcei9GQMjOe-1" target="B4CApN_U5xcei9GQMjOe-2" edge="1">
          <mxGeometry relative="1" as="geometry" />
        </mxCell>
        <mxCell id="B4CApN_U5xcei9GQMjOe-1" value="Internet" style="ellipse;shape=cloud;whiteSpace=wrap;html=1;rounded=1;sketch=1;" parent="1" vertex="1">
          <mxGeometry x="230" y="31" width="120" height="80" as="geometry" />
        </mxCell>
        <mxCell id="B4CApN_U5xcei9GQMjOe-5" value="" style="edgeStyle=orthogonalEdgeStyle;rounded=1;orthogonalLoop=1;jettySize=auto;html=1;startArrow=none;startFill=0;sketch=1;exitX=1;exitY=1;exitDx=0;exitDy=0;entryX=0;entryY=1;entryDx=0;entryDy=0;" parent="1" source="B4CApN_U5xcei9GQMjOe-2" target="B4CApN_U5xcei9GQMjOe-4" edge="1">
          <mxGeometry relative="1" as="geometry">
            <Array as="points">
              <mxPoint x="350" y="241" />
              <mxPoint x="430" y="241" />
            </Array>
          </mxGeometry>
        </mxCell>
        <mxCell id="B4CApN_U5xcei9GQMjOe-2" value="VPS" style="whiteSpace=wrap;html=1;rounded=1;sketch=1;" parent="1" vertex="1">
          <mxGeometry x="230" y="171" width="120" height="60" as="geometry" />
        </mxCell>
        <mxCell id="B4CApN_U5xcei9GQMjOe-7" value="" style="edgeStyle=orthogonalEdgeStyle;rounded=1;orthogonalLoop=1;jettySize=auto;html=1;startArrow=none;startFill=0;sketch=1;exitX=1;exitY=1;exitDx=0;exitDy=0;entryX=0;entryY=1;entryDx=0;entryDy=0;" parent="1" source="B4CApN_U5xcei9GQMjOe-4" target="B4CApN_U5xcei9GQMjOe-6" edge="1">
          <mxGeometry relative="1" as="geometry">
            <Array as="points">
              <mxPoint x="550" y="241" />
              <mxPoint x="630" y="241" />
            </Array>
          </mxGeometry>
        </mxCell>
        <mxCell id="B4CApN_U5xcei9GQMjOe-9" value="" style="edgeStyle=orthogonalEdgeStyle;rounded=1;orthogonalLoop=1;jettySize=auto;html=1;shadow=0;sketch=1;dashed=1;startArrow=classic;startFill=1;" parent="1" source="B4CApN_U5xcei9GQMjOe-4" target="B4CApN_U5xcei9GQMjOe-8" edge="1">
          <mxGeometry relative="1" as="geometry" />
        </mxCell>
        <mxCell id="B4CApN_U5xcei9GQMjOe-4" value="OpenVPN Tunnel&lt;br&gt;(1194)" style="whiteSpace=wrap;html=1;rounded=1;sketch=1;" parent="1" vertex="1">
          <mxGeometry x="430" y="171" width="120" height="60" as="geometry" />
        </mxCell>
        <mxCell id="B4CApN_U5xcei9GQMjOe-12" value="" style="edgeStyle=orthogonalEdgeStyle;shape=link;rounded=1;sketch=1;orthogonalLoop=1;jettySize=auto;html=1;shadow=0;dashed=1;startArrow=classic;startFill=1;" parent="1" source="B4CApN_U5xcei9GQMjOe-6" target="B4CApN_U5xcei9GQMjOe-11" edge="1">
          <mxGeometry relative="1" as="geometry" />
        </mxCell>
        <mxCell id="B4CApN_U5xcei9GQMjOe-6" value="LND Node 1&lt;br&gt;(9735)" style="whiteSpace=wrap;html=1;rounded=1;sketch=1;" parent="1" vertex="1">
          <mxGeometry x="630" y="171" width="120" height="60" as="geometry" />
        </mxCell>
        <mxCell id="B4CApN_U5xcei9GQMjOe-8" value="&lt;font color=&quot;#4d4d4d&quot;&gt;LND Node 2&lt;br&gt;(9736)&lt;/font&gt;" style="whiteSpace=wrap;html=1;rounded=1;sketch=1;" parent="1" vertex="1">
          <mxGeometry x="430" y="301" width="120" height="60" as="geometry" />
        </mxCell>
        <mxCell id="B4CApN_U5xcei9GQMjOe-10" value="Optional" style="text;html=1;strokeColor=none;fillColor=none;align=center;verticalAlign=middle;whiteSpace=wrap;rounded=1;sketch=1;" parent="1" vertex="1">
          <mxGeometry x="430" y="251" width="60" height="30" as="geometry" />
        </mxCell>
        <mxCell id="B4CApN_U5xcei9GQMjOe-14" value="" style="edgeStyle=orthogonalEdgeStyle;shape=link;rounded=1;sketch=1;orthogonalLoop=1;jettySize=auto;html=1;shadow=0;dashed=1;startArrow=classic;startFill=1;" parent="1" source="B4CApN_U5xcei9GQMjOe-11" target="B4CApN_U5xcei9GQMjOe-1" edge="1">
          <mxGeometry relative="1" as="geometry">
            <mxPoint x="530" y="61" as="targetPoint" />
          </mxGeometry>
        </mxCell>
        <mxCell id="B4CApN_U5xcei9GQMjOe-11" value="&lt;font color=&quot;#1a1a1a&quot;&gt;Bitcoind Tor&lt;/font&gt;" style="ellipse;whiteSpace=wrap;html=1;rounded=1;sketch=1;" parent="1" vertex="1">
          <mxGeometry x="630" y="41" width="120" height="60" as="geometry" />
        </mxCell>
        <mxCell id="B4CApN_U5xcei9GQMjOe-15" value="" style="edgeStyle=orthogonalEdgeStyle;rounded=1;orthogonalLoop=1;jettySize=auto;html=1;startArrow=none;startFill=0;sketch=1;entryX=1;entryY=0;entryDx=0;entryDy=0;exitX=0;exitY=0;exitDx=0;exitDy=0;" parent="1" source="B4CApN_U5xcei9GQMjOe-6" target="B4CApN_U5xcei9GQMjOe-4" edge="1">
          <mxGeometry relative="1" as="geometry">
            <mxPoint x="560" y="211" as="sourcePoint" />
            <mxPoint x="640" y="211" as="targetPoint" />
            <Array as="points">
              <mxPoint x="630" y="161" />
              <mxPoint x="550" y="161" />
            </Array>
          </mxGeometry>
        </mxCell>
        <mxCell id="B4CApN_U5xcei9GQMjOe-16" value="" style="edgeStyle=orthogonalEdgeStyle;rounded=1;orthogonalLoop=1;jettySize=auto;html=1;startArrow=none;startFill=0;sketch=1;exitX=0;exitY=0;exitDx=0;exitDy=0;entryX=1;entryY=0;entryDx=0;entryDy=0;" parent="1" source="B4CApN_U5xcei9GQMjOe-4" target="B4CApN_U5xcei9GQMjOe-2" edge="1">
          <mxGeometry relative="1" as="geometry">
            <mxPoint x="570" y="221" as="sourcePoint" />
            <mxPoint x="650" y="221" as="targetPoint" />
            <Array as="points">
              <mxPoint x="430" y="161" />
              <mxPoint x="350" y="161" />
            </Array>
          </mxGeometry>
        </mxCell>
        <mxCell id="uw-84kdqY6EdEDKURCRL-1" value="" style="edgeStyle=orthogonalEdgeStyle;shape=link;rounded=1;sketch=1;orthogonalLoop=1;jettySize=auto;html=1;shadow=0;dashed=1;startArrow=classic;startFill=1;exitX=1.006;exitY=0.59;exitDx=0;exitDy=0;exitPerimeter=0;entryX=1;entryY=0.5;entryDx=0;entryDy=0;strokeColor=#4D4D4D;" parent="1" source="B4CApN_U5xcei9GQMjOe-8" target="B4CApN_U5xcei9GQMjOe-11" edge="1">
          <mxGeometry relative="1" as="geometry">
            <mxPoint x="629.72" y="330" as="sourcePoint" />
            <mxPoint x="629.72" y="260" as="targetPoint" />
          </mxGeometry>
        </mxCell>
      </root>
    </mxGraphModel>
  </diagram>
</mxfile>
